<?xml version="1.0" encoding="utf-8"?>
<!-- Generator: Adobe Illustrator 22.1.0, SVG Export Plug-In . SVG Version: 6.00 Build 0)  -->
<svg version="1.1" id="Layer_1" xmlns="http://www.w3.org/2000/svg" xmlns:xlink="http://www.w3.org/1999/xlink" x="0px" y="0px"
	 viewBox="0 0 50 122.3" style="enable-background:new 0 0 50 122.3;" xml:space="preserve">
<style type="text/css">
	.st0{fill:#FFFFFF;}
	.st1{fill:none;stroke:#000000;stroke-width:0.5;stroke-miterlimit:10;}
</style>
<path class="st0" d="M-101.2,17.2c-2-2.5-5.2-4.1-8.8-4.1s-6.7,1.6-8.8,4.1c-0.3,0.4-0.3,0.9,0,1.3c2,2.5,5.2,4.1,8.8,4.1
	s6.7-1.6,8.8-4.1C-100.9,18.1-100.9,17.6-101.2,17.2z M-103.7,18.3c-1.5,1.8-3.7,2.9-6.3,2.9s-4.8-1.1-6.3-2.9c-0.2-0.3-0.2-0.7,0-1
	c1.5-1.8,3.7-2.9,6.3-2.9s4.8,1.1,6.3,2.9C-103.5,17.7-103.5,18.1-103.7,18.3z"/>
<ellipse class="st0" cx="-110" cy="17.9" rx="2" ry="1.9"/>
<g>
	<path class="st0" d="M-110,30.1l1.5,3c0.3,0.6,0.9,1,1.6,1.1l3.3,0.5l-2.3,2.2c-0.5,0.5-0.8,1.2-0.6,1.9l0.6,3.2l-3-1.5
		c-0.3-0.2-0.6-0.2-1-0.2c-0.3,0-0.7,0.1-1,0.2l-3,1.5l0.6-3.2c0.1-0.7-0.1-1.4-0.6-1.9l-2.3-2.2l3.3-0.5c0.7-0.1,1.3-0.5,1.6-1.1
		L-110,30.1 M-110,27.6c-0.2,0-0.4,0.1-0.6,0.3l-2.3,4.5c-0.1,0.2-0.3,0.3-0.5,0.3l-5.2,0.7c-0.5,0.1-0.7,0.7-0.3,1l3.7,3.5
		c0.1,0.1,0.2,0.3,0.2,0.5l-0.9,4.9c-0.1,0.4,0.2,0.7,0.6,0.7c0.1,0,0.2,0,0.3-0.1l4.6-2.3c0.1,0,0.2-0.1,0.3-0.1s0.2,0,0.3,0.1
		l4.6,2.3c0.1,0,0.2,0.1,0.3,0.1c0.4,0,0.7-0.3,0.6-0.7l-0.9-4.9c0-0.2,0-0.4,0.2-0.5l3.7-3.5c0.4-0.3,0.2-0.9-0.3-1l-5.2-0.7
		c-0.2,0-0.4-0.1-0.5-0.3l-2.3-4.5C-109.5,27.7-109.8,27.6-110,27.6L-110,27.6z"/>
</g>
<path class="st0" d="M-105.2,44.9c-1.4,0-2.6,1.1-2.6,2.5c0,1.2,0.8,2.2,2,2.4v3h-8.4v-3c1.1-0.3,2-1.2,2-2.4c0-1.4-1.2-2.5-2.6-2.5
	c-1.4,0-2.6,1.1-2.6,2.5c0,1.2,0.8,2.2,2,2.4V54h4.8v4c-1.1,0.3-2,1.2-2,2.4c0,1.4,1.2,2.5,2.6,2.5c1.4,0,2.6-1.1,2.6-2.5
	c0-1.2-0.8-2.2-2-2.4v-4h4.8v-4.2c1.1-0.3,2-1.2,2-2.4C-102.6,46-103.7,44.9-105.2,44.9z M-116.4,47.3c0-0.9,0.7-1.6,1.6-1.6
	c0.9,0,1.6,0.7,1.6,1.6s-0.7,1.6-1.6,1.6C-115.7,48.9-116.4,48.2-116.4,47.3z M-108.3,60.4c0,0.9-0.7,1.6-1.6,1.6
	c-0.9,0-1.6-0.7-1.6-1.6s0.7-1.6,1.6-1.6C-109.1,58.8-108.3,59.5-108.3,60.4z M-105.2,48.9c-0.9,0-1.6-0.7-1.6-1.6s0.7-1.6,1.6-1.6
	c0.9,0,1.6,0.7,1.6,1.6S-104.3,48.9-105.2,48.9z"/>
<rect x="-119" y="8.9" class="st1" width="18" height="18"/>
<rect x="-119" y="26.9" class="st1" width="18" height="18"/>
<rect x="-119" y="44.9" class="st1" width="18" height="18"/>
<path class="st0" d="M17.8,8.3c-2-2.5-5.2-4.1-8.8-4.1S2.3,5.8,0.2,8.3c-0.3,0.4-0.3,0.9,0,1.3c2,2.5,5.2,4.1,8.8,4.1
	s6.7-1.6,8.8-4.1C18.1,9.3,18.1,8.7,17.8,8.3z M15.3,9.5c-1.5,1.8-3.7,2.9-6.3,2.9s-4.8-1.1-6.3-2.9c-0.2-0.3-0.2-0.7,0-1
	C4.2,6.7,6.5,5.6,9,5.6s4.8,1.1,6.3,2.9C15.5,8.8,15.5,9.2,15.3,9.5z"/>
<ellipse class="st0" cx="9" cy="9" rx="2" ry="1.9"/>
<g>
	<path class="st0" d="M9,21.3l1.5,3c0.3,0.6,0.9,1,1.6,1.1l3.3,0.5L13.1,28c-0.5,0.5-0.8,1.2-0.6,1.9l0.6,3.2l-3-1.5
		c-0.3-0.2-0.6-0.2-1-0.2s-0.7,0.1-1,0.2l-3,1.5l0.6-3.2c0.1-0.7-0.1-1.4-0.6-1.9l-2.3-2.2l3.3-0.5c0.7-0.1,1.3-0.5,1.6-1.1L9,21.3
		 M9,18.7c-0.2,0-0.4,0.1-0.6,0.3l-2.3,4.5c-0.1,0.2-0.3,0.3-0.5,0.3l-5.2,0.7c-0.5,0.1-0.7,0.7-0.3,1l3.7,3.5
		c0.1,0.1,0.2,0.3,0.2,0.5l-0.9,4.9c-0.1,0.4,0.2,0.7,0.6,0.7c0.1,0,0.2,0,0.3-0.1l4.6-2.3c0.1,0,0.2-0.1,0.3-0.1s0.2,0,0.3,0.1
		l4.6,2.3c0.1,0,0.2,0.1,0.3,0.1c0.4,0,0.7-0.3,0.6-0.7l-0.9-4.9c0-0.2,0-0.4,0.2-0.5l3.7-3.5c0.4-0.3,0.2-0.9-0.3-1l-5.2-0.7
		c-0.2,0-0.4-0.1-0.5-0.3l-2.3-4.5C9.4,18.8,9.2,18.7,9,18.7L9,18.7z"/>
</g>
<path class="st0" d="M13.8,36c-1.4,0-2.6,1.1-2.6,2.5c0,1.2,0.8,2.2,2,2.4v3H4.8v-3c1.1-0.3,2-1.2,2-2.4c0-1.4-1.2-2.5-2.6-2.5
	c-1.4,0-2.6,1.1-2.6,2.5c0,1.2,0.8,2.2,2,2.4v4.2h4.8v4c-1.1,0.3-2,1.2-2,2.4C6.4,52.9,7.6,54,9,54c1.4,0,2.6-1.1,2.6-2.5
	c0-1.2-0.8-2.2-2-2.4v-4h4.8v-4.2c1.1-0.3,2-1.2,2-2.4C16.4,37.1,15.3,36,13.8,36z M2.5,38.5c0-0.9,0.7-1.6,1.6-1.6
	c0.9,0,1.6,0.7,1.6,1.6s-0.7,1.6-1.6,1.6C3.3,40.1,2.5,39.4,2.5,38.5z M10.6,51.5c0,0.9-0.7,1.6-1.6,1.6c-0.9,0-1.6-0.7-1.6-1.6
	s0.7-1.6,1.6-1.6C9.9,49.9,10.6,50.6,10.6,51.5z M13.8,40.1c-0.9,0-1.6-0.7-1.6-1.6s0.7-1.6,1.6-1.6c0.9,0,1.6,0.7,1.6,1.6
	S14.7,40.1,13.8,40.1z"/>
</svg>
