<?xml version="1.0" encoding="utf-8"?>
<!-- Generator: Adobe Illustrator 22.1.0, SVG Export Plug-In . SVG Version: 6.00 Build 0)  -->
<svg version="1.1" id="Layer_1" xmlns="http://www.w3.org/2000/svg" xmlns:xlink="http://www.w3.org/1999/xlink" x="0px" y="0px"
	 viewBox="0 0 56 130" style="enable-background:new 0 0 56 130;" xml:space="preserve">
<style type="text/css">
	.st0{fill:#FFFFFF;}
	.st1{fill:none;stroke:#000000;stroke-width:0.5;stroke-miterlimit:10;}
	.st2{fill:#149BC5;}
	.st3{fill:#323232;}
	.st4{fill:none;stroke:#000000;stroke-miterlimit:10;}
</style>
<path class="st0" d="M-98.2,17.2c-2-2.5-5.2-4.1-8.8-4.1s-6.7,1.6-8.8,4.1c-0.3,0.4-0.3,0.9,0,1.3c2,2.5,5.2,4.1,8.8,4.1
	s6.7-1.6,8.8-4.1C-97.9,18.1-97.9,17.6-98.2,17.2z M-100.7,18.3c-1.5,1.8-3.7,2.9-6.3,2.9s-4.8-1.1-6.3-2.9c-0.2-0.3-0.2-0.7,0-1
	c1.5-1.8,3.7-2.9,6.3-2.9s4.8,1.1,6.3,2.9C-100.5,17.7-100.5,18.1-100.7,18.3z"/>
<ellipse class="st0" cx="-107" cy="17.9" rx="2" ry="1.9"/>
<g>
	<path class="st0" d="M-107,30.1l1.5,3c0.3,0.6,0.9,1,1.6,1.1l3.3,0.5l-2.3,2.2c-0.5,0.5-0.8,1.2-0.6,1.9l0.6,3.2l-3-1.5
		c-0.3-0.2-0.6-0.2-1-0.2c-0.3,0-0.7,0.1-1,0.2l-3,1.5l0.6-3.2c0.1-0.7-0.1-1.4-0.6-1.9l-2.3-2.2l3.3-0.5c0.7-0.1,1.3-0.5,1.6-1.1
		L-107,30.1 M-107,27.6c-0.2,0-0.4,0.1-0.6,0.3l-2.3,4.5c-0.1,0.2-0.3,0.3-0.5,0.3l-5.2,0.7c-0.5,0.1-0.7,0.7-0.3,1l3.7,3.5
		c0.1,0.1,0.2,0.3,0.2,0.5l-0.9,4.9c-0.1,0.4,0.2,0.7,0.6,0.7c0.1,0,0.2,0,0.3-0.1l4.6-2.3c0.1,0,0.2-0.1,0.3-0.1s0.2,0,0.3,0.1
		l4.6,2.3c0.1,0,0.2,0.1,0.3,0.1c0.4,0,0.7-0.3,0.6-0.7l-0.9-4.9c0-0.2,0-0.4,0.2-0.5l3.7-3.5c0.4-0.3,0.2-0.9-0.3-1l-5.2-0.7
		c-0.2,0-0.4-0.1-0.5-0.3l-2.3-4.5C-106.5,27.7-106.8,27.6-107,27.6L-107,27.6z"/>
</g>
<path class="st0" d="M-102.2,44.9c-1.4,0-2.6,1.1-2.6,2.5c0,1.2,0.8,2.2,2,2.4v3h-8.4v-3c1.1-0.3,2-1.2,2-2.4c0-1.4-1.2-2.5-2.6-2.5
	c-1.4,0-2.6,1.1-2.6,2.5c0,1.2,0.8,2.2,2,2.4V54h4.8v4c-1.1,0.3-2,1.2-2,2.4c0,1.4,1.2,2.5,2.6,2.5c1.4,0,2.6-1.1,2.6-2.5
	c0-1.2-0.8-2.2-2-2.4v-4h4.8v-4.2c1.1-0.3,2-1.2,2-2.4C-99.6,46-100.7,44.9-102.2,44.9z M-113.4,47.3c0-0.9,0.7-1.6,1.6-1.6
	c0.9,0,1.6,0.7,1.6,1.6s-0.7,1.6-1.6,1.6C-112.7,48.9-113.4,48.2-113.4,47.3z M-105.3,60.4c0,0.9-0.7,1.6-1.6,1.6
	c-0.9,0-1.6-0.7-1.6-1.6s0.7-1.6,1.6-1.6C-106.1,58.8-105.3,59.5-105.3,60.4z M-102.2,48.9c-0.9,0-1.6-0.7-1.6-1.6s0.7-1.6,1.6-1.6
	c0.9,0,1.6,0.7,1.6,1.6S-101.3,48.9-102.2,48.9z"/>
<rect x="-116" y="8.9" class="st1" width="18" height="18"/>
<rect x="-116" y="26.9" class="st1" width="18" height="18"/>
<rect x="-116" y="44.9" class="st1" width="18" height="18"/>
<path class="st0" d="M-37.2,8.3c-2-2.5-5.2-4.1-8.8-4.1s-6.7,1.6-8.8,4.1c-0.3,0.4-0.3,0.9,0,1.3c2,2.5,5.2,4.1,8.8,4.1
	s6.7-1.6,8.8-4.1C-36.9,9.3-36.9,8.7-37.2,8.3z M-39.7,9.5c-1.5,1.8-3.7,2.9-6.3,2.9s-4.8-1.1-6.3-2.9c-0.2-0.3-0.2-0.7,0-1
	c1.5-1.8,3.7-2.9,6.3-2.9s4.8,1.1,6.3,2.9C-39.5,8.8-39.5,9.2-39.7,9.5z"/>
<ellipse class="st0" cx="-46" cy="9" rx="2" ry="1.9"/>
<g>
	<path class="st0" d="M-46,21.3l1.5,3c0.3,0.6,0.9,1,1.6,1.1l3.3,0.5l-2.3,2.2c-0.5,0.5-0.8,1.2-0.6,1.9l0.6,3.2l-3-1.5
		c-0.3-0.2-0.6-0.2-1-0.2c-0.3,0-0.7,0.1-1,0.2l-3,1.5l0.6-3.2c0.1-0.7-0.1-1.4-0.6-1.9l-2.3-2.2l3.3-0.5c0.7-0.1,1.3-0.5,1.6-1.1
		L-46,21.3 M-46,18.7c-0.2,0-0.4,0.1-0.6,0.3l-2.3,4.5c-0.1,0.2-0.3,0.3-0.5,0.3l-5.2,0.7c-0.5,0.1-0.7,0.7-0.3,1l3.7,3.5
		c0.1,0.1,0.2,0.3,0.2,0.5l-0.9,4.9c-0.1,0.4,0.2,0.7,0.6,0.7c0.1,0,0.2,0,0.3-0.1l4.6-2.3c0.1,0,0.2-0.1,0.3-0.1
		c0.1,0,0.2,0,0.3,0.1l4.6,2.3c0.1,0,0.2,0.1,0.3,0.1c0.4,0,0.7-0.3,0.6-0.7l-0.9-4.9c0-0.2,0-0.4,0.2-0.5l3.7-3.5
		c0.4-0.3,0.2-0.9-0.3-1l-5.2-0.7c-0.2,0-0.4-0.1-0.5-0.3l-2.3-4.5C-45.6,18.8-45.8,18.7-46,18.7L-46,18.7z"/>
</g>
<path class="st0" d="M-41.2,36c-1.4,0-2.6,1.1-2.6,2.5c0,1.2,0.8,2.2,2,2.4v3h-8.4v-3c1.1-0.3,2-1.2,2-2.4c0-1.4-1.2-2.5-2.6-2.5
	c-1.4,0-2.6,1.1-2.6,2.5c0,1.2,0.8,2.2,2,2.4v4.2h4.8v4c-1.1,0.3-2,1.2-2,2.4c0,1.4,1.2,2.5,2.6,2.5c1.4,0,2.6-1.1,2.6-2.5
	c0-1.2-0.8-2.2-2-2.4v-4h4.8v-4.2c1.1-0.3,2-1.2,2-2.4C-38.6,37.1-39.7,36-41.2,36z M-52.5,38.5c0-0.9,0.7-1.6,1.6-1.6
	c0.9,0,1.6,0.7,1.6,1.6s-0.7,1.6-1.6,1.6C-51.7,40.1-52.5,39.4-52.5,38.5z M-44.4,51.5c0,0.9-0.7,1.6-1.6,1.6
	c-0.9,0-1.6-0.7-1.6-1.6s0.7-1.6,1.6-1.6C-45.1,49.9-44.4,50.6-44.4,51.5z M-41.2,40.1c-0.9,0-1.6-0.7-1.6-1.6s0.7-1.6,1.6-1.6
	c0.9,0,1.6,0.7,1.6,1.6S-40.3,40.1-41.2,40.1z"/>
<path class="st2" d="M25.4,6.2c-0.2,0-0.3,0.1-0.5,0.1c0-0.1,0-0.1-0.1-0.2c0.7-0.5,2.1-1.8,2.4-3.1c0,0-1.7,0.8-3,1.3
	c-0.2,0.1-0.3,0.1-0.5,0.1c-1.1-1.2-2.6-2-4.4-2c-1.5,0-2.9,0.6-3.9,1.5c-1.2,1.1-2,2.6-2,4.4c0,0.4,0,0.8,0.1,1.1
	c-0.3,0-0.5,0-0.8,0c-0.2,0-0.5,0-0.7-0.1c-0.1,0-0.3,0-0.4,0h0c-0.4,0-0.7-0.1-1.1-0.2c-0.5-0.1-0.9-0.2-1.4-0.3
	C8.9,8.8,8.3,8.6,7.8,8.5h0C6.1,7.8,4.6,6.9,3.4,5.9C3.2,5.7,3,5.5,2.8,5.3C2.5,4.9,2.2,4.6,2,4.2L1.6,3.6c0,0,0,0,0,0
	c0,0.1-0.2,0.3-0.3,0.6c0,0,0,0,0,0c0,0,0,0.1,0,0.1c0,0,0,0.1,0,0.1c0,0,0,0,0,0c0,0,0,0.1,0,0.1c0,0,0,0,0,0c0,0.1,0,0.1-0.1,0.2
	C1.1,4.9,1.1,5,1,5.2c0,0,0,0.1,0,0.1c0,0,0,0.1,0,0.1c0,0,0,0,0,0c0,0,0,0,0,0.1c0,0,0,0,0,0.1c0,0,0,0,0,0.1c0,0.1,0,0.1,0,0.2
	c0,0,0,0.1,0,0.1c0,0,0,0.1,0,0.1c-0.1,1.5,0.3,3.5,2.2,5.5c-0.8-0.2-1.6-0.5-2.3-0.9c0,0.1,0,0.1,0,0.2c0,1.5,0.6,2.9,1.5,3.9
	c0,0,0,0,0,0c1,1.1,2.4,1.9,4,2c-0.5,0.1-1,0.2-1.5,0.2c-0.8,0-1.5-0.1-2.2-0.4c0.9,2.3,3.1,3.9,5.7,3.9c0.1,0,0.2,0,0.3,0
	c-2.5,1.7-5.5,2.7-8.8,2.8c2.5,1.4,5.4,2.2,8.5,2.2c9,0,16.4-6.9,16.6-15.6c0-0.1,0-0.3,0-0.4c0-0.4,0-0.7,0-1c0,0,0.1-0.1,0.2-0.2
	c0.6-0.5,2.2-1.8,2.7-2.8C28,5.4,26.6,5.9,25.4,6.2z M24.4,6.5L24.4,6.5C24.4,6.4,24.5,6.4,24.4,6.5C24.4,6.4,24.4,6.5,24.4,6.5z"/>
<path class="st3" d="M28,42.2c0,6.4-4.3,11.8-10.1,13.5v0c-0.1,0-0.2-0.1-0.3-0.4c-0.1-0.4,0-2.8,0-2.8l0.1-2c0,0-0.1-0.8-0.5-1.5
	c3.5-0.6,6.2-3.5,6.2-7c0-1.7-0.6-3.2-1.7-4.4c0.2-0.5,0.6-1.9-0.3-3.6c0,0-0.8-0.4-3.5,1.3c-0.1,0.1-0.2,0.1-0.3,0.2
	c0,0-1.2-0.4-2.6-0.4c-0.3,0-0.6,0-0.9,0c-0.3,0-0.6,0-0.9,0c-1.5,0.1-2.6,0.4-2.6,0.4c-0.1-0.1-0.2-0.1-0.3-0.2
	c-2.7-1.7-3.5-1.3-3.5-1.3c-0.8,1.7-0.5,3.1-0.3,3.6c-1,1.2-1.7,2.8-1.7,4.4c0,3.5,2.7,6.4,6.2,7c-0.4,0.7-0.5,1.5-0.5,1.5
	s-2,0.6-2.9,0s-1.3-1.6-1.3-1.6s-0.6-0.9-1.9-1c-1.3-0.1-0.7,0.6-0.7,0.6s1.3,0.4,2,2.2C6.5,52.4,8,52.5,8,52.5l2.6,0
	c0,0,0.1,2.4,0,2.8c-0.1,0.3-0.2,0.3-0.3,0.4v0.1C4.4,54.2,0,48.7,0,42.2c0-7.7,6.3-14,14-14C21.7,28.2,28,34.5,28,42.2z"/>
<path class="st3" d="M29.7,62.9L29.7,62.9C29.7,62.9,29.7,62.9,29.7,62.9z"/>
<path class="st0" d="M5.6,56L0,78.4L22.4,84L28,61.6L5.6,56z M15.7,72.9l-4.7-1.2l1.2-4.7l4.7,1.2L15.7,72.9z"/>
<rect x="148" class="st4" width="28" height="28"/>
<rect x="148" y="28" class="st4" width="28" height="28"/>
<rect x="148" y="56" class="st4" width="28" height="28"/>
</svg>
